<svg width="236" height="46" viewBox="0 0 236 46" fill="none" xmlns="http://www.w3.org/2000/svg">
<g filter="url(#filter0_d)">
<path d="M45.4814 24.1953C45.8428 24.0195 46.3457 23.8047 46.9902 23.5508C47.6445 23.2871 48.0596 23.1553 48.2354 23.1553C48.3623 23.1553 48.4258 23.2236 48.4258 23.3604C48.4258 23.4971 48.3916 23.6387 48.3232 23.7852C48.2549 23.9316 48.1816 24.0586 48.1035 24.166C48.0352 24.2734 47.9424 24.4053 47.8252 24.5615L47.6055 24.8545C47.1367 25.5186 46.4629 26.0703 45.584 26.5098C45.2812 26.666 44.8418 26.8711 44.2656 27.125C43.6992 27.3789 43.3037 27.5645 43.0791 27.6816L42.3027 28.8535C40.6523 31.2949 39.2705 33.126 38.1572 34.3467C37.0537 35.5674 36.0283 36.4512 35.0811 36.998C34.1436 37.5449 33.0498 37.8184 31.7998 37.8184C31.1943 37.8184 30.7354 37.5547 30.4229 37.0273C30.1201 36.5098 29.9688 35.9238 29.9688 35.2695C29.9688 34.625 30.1689 33.9561 30.5693 33.2627C30.9795 32.5693 31.541 31.9053 32.2539 31.2705C32.9668 30.6455 33.7139 30.0498 34.4951 29.4834C35.2764 28.9268 36.1406 28.3848 37.0879 27.8574C38.6211 27.0273 40.1104 26.2803 41.5557 25.6162C45.1104 20.3818 48.7188 15.3086 52.3809 10.3965C52.459 10.3184 52.498 10.2598 52.498 10.2207C52.498 10.1816 52.3516 10.1621 52.0586 10.1621C51.7656 10.1621 51.1113 10.2598 50.0957 10.4551C47.8789 10.9043 45.6768 11.7197 43.4893 12.9014C41.3018 14.0732 39.4268 15.4209 37.8643 16.9443C36.3018 18.458 35.5205 19.6885 35.5205 20.6357C35.5205 21.1143 35.7256 21.5098 36.1357 21.8223C36.5459 22.125 36.9854 22.2764 37.4541 22.2764C37.9326 22.2764 38.4209 22.1592 38.9189 21.9248C39.4268 21.6807 39.8467 21.4414 40.1787 21.207C40.5107 20.9629 40.7012 20.8408 40.75 20.8408C40.7988 20.8408 40.8232 20.9092 40.8232 21.0459C40.8232 21.7588 40.6328 22.374 40.252 22.8916C39.8809 23.3994 39.3633 23.7803 38.6992 24.0342C38.0352 24.2881 37.3955 24.415 36.7803 24.415C36.1748 24.415 35.5547 24.2881 34.9199 24.0342C34.2852 23.7803 33.7432 23.3848 33.2939 22.8477C32.8545 22.3105 32.6348 21.7002 32.6348 21.0166C32.6348 20.7236 32.6982 20.377 32.8252 19.9766C33.792 16.832 36.9512 13.7998 42.3027 10.8799C44.1387 9.88379 46.1895 9.08301 48.4551 8.47754C50.7305 7.8623 52.8789 7.55469 54.9004 7.55469C55.2715 7.55469 55.5938 7.67188 55.8672 7.90625C56.1406 8.14062 56.2773 8.38965 56.2773 8.65332C56.2773 8.91699 56.2578 9.10254 56.2188 9.20996C56.1797 9.31738 56.0039 9.5957 55.6914 10.0449C55.3789 10.4941 55.0615 10.9287 54.7393 11.3486C53.8506 12.501 53.0938 13.4922 52.4688 14.3223C51.8438 15.1523 49.5146 18.4434 45.4814 24.1953ZM39.2705 29.0879C34.4658 32.0664 32.0635 34.0586 32.0635 35.0645C32.0635 35.2793 32.2295 35.3867 32.5615 35.3867C32.9033 35.3867 33.3477 35.2158 33.8945 34.874C34.4414 34.5322 34.9541 34.1318 35.4326 33.6729C35.9209 33.2139 36.4385 32.6621 36.9854 32.0176C37.7764 31.0801 38.5381 30.1035 39.2705 29.0879ZM69.0713 17.8379C69.3643 17.8379 69.6621 17.9697 69.9648 18.2334C70.2773 18.4971 70.4336 18.9023 70.4336 19.4492C70.4336 19.9863 70.2432 20.6895 69.8623 21.5586C69.4814 22.418 68.959 23.2969 68.2949 24.1953C67.6309 25.084 66.8984 25.9238 66.0977 26.7148C65.3066 27.4961 64.4473 28.1406 63.5195 28.6484C62.6016 29.1465 61.7666 29.3955 61.0146 29.3955C60.2627 29.3955 59.6572 29.1611 59.1982 28.6924C58.749 28.2139 58.5244 27.5547 58.5244 26.7148C58.5244 25.8652 58.7295 24.9277 59.1396 23.9023C59.5596 22.877 60.0967 21.9736 60.751 21.1924C61.4053 20.4014 62.1133 19.6934 62.875 19.0684C64.4668 17.7891 65.8633 17.1494 67.0645 17.1494C67.6016 17.1494 68.0068 17.2812 68.2803 17.5449C68.3779 17.6328 68.4268 17.7109 68.4268 17.7793V17.8672C68.5635 17.8477 68.7783 17.8379 69.0713 17.8379ZM67.5918 19.7861H67.4893C67.1475 19.7861 66.9766 19.5371 66.9766 19.0391C66.2637 19.2734 65.5166 19.6836 64.7354 20.2695C63.9541 20.8555 63.2559 21.5488 62.6406 22.3496C61.3906 23.9512 60.7559 25.3037 60.7363 26.4072C60.7363 26.9541 60.9365 27.2275 61.3369 27.2275C61.7373 27.2275 62.333 26.9639 63.124 26.4365C63.915 25.9092 64.6963 25.1572 65.4678 24.1807C66.249 23.2041 66.8301 22.3594 67.2109 21.6465C67.6016 20.9238 67.7969 20.4355 67.7969 20.1816C67.7969 19.918 67.7285 19.7861 67.5918 19.7861ZM92.002 24.6787C92.0703 25.1279 92.1045 25.4844 92.1045 25.748C92.1045 26.002 92.0557 26.2266 91.958 26.4219C91.8701 26.6074 91.665 26.876 91.3428 27.2275C91.0303 27.5693 90.6543 27.916 90.2148 28.2676C89.1406 29.1172 88.042 29.542 86.9189 29.542C85.3076 29.542 84.502 28.8291 84.502 27.4033C84.502 26.1631 85.5811 23.6924 87.7393 19.9912C87.8174 19.8545 87.8711 19.7568 87.9004 19.6982C87.1484 20.2256 85.708 21.666 83.5791 24.0195C81.46 26.3633 80.0488 28.0234 79.3457 29C79.2871 29.0879 79.1406 29.1855 78.9062 29.293C78.6719 29.4004 78.4863 29.4541 78.3496 29.4541C78.2227 29.4541 78.0859 29.4102 77.9395 29.3223C77.7832 29.2441 77.6855 29.2051 77.6465 29.2051C77.5195 29.2051 77.4561 29.1611 77.4561 29.0732C77.4561 28.9951 77.6318 28.5508 77.9834 27.7402C78.3252 26.9199 78.7793 25.9043 79.3457 24.6934C80.8984 21.3535 83.208 17.0078 86.2744 11.6562C87.3486 9.78125 88.1885 8.45312 88.7939 7.67188C89.2236 7.11523 89.9463 6.83691 90.9619 6.83691C91.1768 6.83691 91.2988 6.90039 91.3281 7.02734C91.3574 7.1543 91.3721 7.29102 91.3721 7.4375C91.3721 7.58398 91.3428 7.73047 91.2842 7.87695L89.7168 10.3232C86.6113 15.167 84.2725 19.1807 82.7002 22.3643C84.2236 20.5088 85.7031 19.0781 87.1387 18.0723C88.0273 17.4375 88.6914 17.1201 89.1309 17.1201C89.5801 17.1201 89.9854 17.1934 90.3467 17.3398C90.708 17.4766 90.8887 17.8135 90.8887 18.3506C90.8887 18.5459 90.5713 19.2686 89.9365 20.5186C88.0322 24.2686 87.0801 26.3535 87.0801 26.7734C87.0801 27.1836 87.251 27.3887 87.5928 27.3887C88.0908 27.3887 88.8574 26.9053 89.8926 25.9385C90.6738 25.2061 91.167 24.7373 91.3721 24.5322C91.4893 24.4443 91.5967 24.4004 91.6943 24.4004C91.8799 24.4004 91.9824 24.4932 92.002 24.6787ZM107.564 26.7441C107.564 27.1738 107.857 27.3887 108.443 27.3887C108.756 27.3887 109.146 27.2324 109.615 26.9199C110.094 26.6074 110.523 26.2656 110.904 25.8945C111.92 24.8887 112.496 24.3857 112.633 24.3857C112.887 24.3857 113.014 24.752 113.014 25.4844C113.014 26.2168 112.784 26.7197 112.325 26.9932C110.929 28.2529 109.85 29.0195 109.088 29.293C108.658 29.4395 108.185 29.5078 107.667 29.498C107.149 29.4883 106.637 29.2637 106.129 28.8242C105.621 28.3848 105.367 27.8525 105.367 27.2275C105.367 26.5928 105.533 25.875 105.865 25.0742C106.197 24.2734 106.534 23.5898 106.876 23.0234C107.228 22.4473 107.657 21.7832 108.165 21.0312C108.673 20.2695 108.941 19.7959 108.971 19.6104L108.941 19.5811C108.619 19.6104 107.818 20.2451 106.539 21.4854C105.27 22.7256 104.22 23.8047 103.39 24.7227C102.56 25.6406 101.568 26.8662 100.416 28.3994C100.094 28.8193 99.8301 29.0293 99.625 29.0293C99.4199 29.0293 99.1465 28.9658 98.8047 28.8389C98.4531 28.7021 98.2383 28.6045 98.1602 28.5459C98.082 28.4873 98.043 28.3994 98.043 28.2822C98.043 28.165 98.0771 28.0234 98.1455 27.8574C98.2139 27.6816 98.2822 27.54 98.3506 27.4326C98.4092 27.3154 98.5117 27.1396 98.6582 26.9053C98.8047 26.6709 99.0928 26.1777 99.5225 25.4258C99.9619 24.6641 100.631 23.5312 101.529 22.0273C102.428 20.5234 102.965 19.6152 103.141 19.3027C103.512 18.6582 103.814 18.1895 104.049 17.8965C104.488 17.3398 105.23 17.0615 106.275 17.0615C106.51 17.0615 106.627 17.208 106.627 17.501C106.627 17.96 106.202 18.8242 105.353 20.0938L104.737 21.0166C106.427 19.1416 107.853 17.9551 109.015 17.457C109.581 17.2129 110.089 17.0908 110.538 17.0908C110.997 17.0908 111.358 17.2129 111.622 17.457C111.896 17.7012 112.032 17.9746 112.032 18.2773C112.032 18.5703 111.93 18.9268 111.725 19.3467C111.52 19.7568 111.31 20.1279 111.095 20.46C110.89 20.7822 110.616 21.1924 110.274 21.6904C109.933 22.1885 109.747 22.4619 109.718 22.5107C109.688 22.5498 109.61 22.667 109.483 22.8623C109.366 23.0479 109.278 23.1846 109.22 23.2725C109.161 23.3604 109.063 23.5166 108.927 23.7412C108.79 23.9561 108.678 24.1367 108.59 24.2832C108.512 24.4297 108.409 24.6104 108.282 24.8252C108.165 25.04 108.067 25.2256 107.989 25.3818C107.921 25.5381 107.848 25.709 107.77 25.8945C107.633 26.2363 107.564 26.5195 107.564 26.7441Z" fill="white"/>
<path d="M142.015 14.6445L141.707 14.6006H141.648C141.404 14.6006 141.15 14.5029 140.887 14.3076C140.633 14.1123 140.506 13.7656 140.506 13.2676C140.506 12.7695 140.774 12.2031 141.312 11.5684C141.858 10.9336 142.596 10.3525 143.523 9.8252C144.451 9.28809 145.604 8.84863 146.98 8.50684C148.367 8.16504 149.827 7.99414 151.36 7.99414C154.495 7.99414 156.941 8.61426 158.699 9.85449C160.467 11.085 161.351 12.6865 161.351 14.6592C161.351 15.8896 161.077 17.1201 160.53 18.3506C159.983 19.5811 159.251 20.7188 158.333 21.7637C157.415 22.7988 156.336 23.7705 155.096 24.6787C153.855 25.5771 152.557 26.3438 151.199 26.9785C148.27 28.3262 145.467 29 142.791 29C141.473 29 140.643 28.8926 140.301 28.6777C140.174 28.6094 140.047 28.5068 139.92 28.3701C139.803 28.2236 139.71 28.126 139.642 28.0771C139.456 27.96 139.363 27.7109 139.363 27.3301C139.363 26.9395 139.402 26.5879 139.48 26.2754C139.773 25.2305 141.087 22.9648 143.421 19.4785C145.765 15.9824 147.723 13.165 149.295 11.0264C149.402 10.8799 149.954 10.7725 150.95 10.7041C151.36 10.7041 151.644 10.7334 151.8 10.792C151.956 10.8506 152.034 10.958 152.034 11.1143C152.034 11.2607 151.78 11.6904 151.272 12.4033C150.765 13.1064 149.134 15.582 146.38 19.8301C143.626 24.0684 142.249 26.2461 142.249 26.3633C142.249 26.4805 142.679 26.5391 143.538 26.5391C144.407 26.5391 145.472 26.3584 146.731 25.9971C148.001 25.626 149.192 25.1426 150.306 24.5469C151.419 23.9512 152.483 23.2627 153.499 22.4814C154.515 21.6904 155.384 20.8848 156.106 20.0645C157.688 18.2676 158.479 16.6709 158.479 15.2744C158.479 13.8779 157.84 12.6914 156.561 11.7148C155.291 10.7383 153.548 10.25 151.331 10.25C149.837 10.25 148.426 10.499 147.098 10.9971C145.77 11.4951 144.856 11.9395 144.358 12.3301C143.86 12.7207 143.611 12.9844 143.611 13.1211C143.611 13.1992 143.67 13.2383 143.787 13.2383L144.417 13.1211C144.505 13.1211 144.549 13.1406 144.549 13.1797C144.549 13.2188 144.466 13.2871 144.3 13.3848C144.134 13.4824 143.997 13.5898 143.89 13.707C143.792 13.8145 143.538 13.9951 143.128 14.249C142.718 14.4932 142.347 14.625 142.015 14.6445ZM178.378 17.8379C178.671 17.8379 178.969 17.9697 179.271 18.2334C179.584 18.4971 179.74 18.9023 179.74 19.4492C179.74 19.9863 179.55 20.6895 179.169 21.5586C178.788 22.418 178.266 23.2969 177.602 24.1953C176.938 25.084 176.205 25.9238 175.404 26.7148C174.613 27.4961 173.754 28.1406 172.826 28.6484C171.908 29.1465 171.073 29.3955 170.321 29.3955C169.569 29.3955 168.964 29.1611 168.505 28.6924C168.056 28.2139 167.831 27.5547 167.831 26.7148C167.831 25.8652 168.036 24.9277 168.446 23.9023C168.866 22.877 169.403 21.9736 170.058 21.1924C170.712 20.4014 171.42 19.6934 172.182 19.0684C173.773 17.7891 175.17 17.1494 176.371 17.1494C176.908 17.1494 177.313 17.2812 177.587 17.5449C177.685 17.6328 177.733 17.7109 177.733 17.7793V17.8672C177.87 17.8477 178.085 17.8379 178.378 17.8379ZM176.898 19.7861H176.796C176.454 19.7861 176.283 19.5371 176.283 19.0391C175.57 19.2734 174.823 19.6836 174.042 20.2695C173.261 20.8555 172.562 21.5488 171.947 22.3496C170.697 23.9512 170.062 25.3037 170.043 26.4072C170.043 26.9541 170.243 27.2275 170.644 27.2275C171.044 27.2275 171.64 26.9639 172.431 26.4365C173.222 25.9092 174.003 25.1572 174.774 24.1807C175.556 23.2041 176.137 22.3594 176.518 21.6465C176.908 20.9238 177.104 20.4355 177.104 20.1816C177.104 19.918 177.035 19.7861 176.898 19.7861ZM198.496 18.043C198.496 18.6875 198.232 19.2539 197.705 19.7422C197.188 20.2305 196.597 20.4746 195.933 20.4746C195.718 20.4746 195.576 20.4258 195.508 20.3281C195.439 20.2207 195.405 20.084 195.405 19.918C195.405 19.752 195.425 19.5908 195.464 19.4346C195.112 19.5518 194.722 19.7324 194.292 19.9766C193.862 20.2207 193.335 20.582 192.71 21.0605C192.085 21.5391 191.772 21.8955 191.772 22.1299C191.772 22.208 191.885 22.2471 192.109 22.2471C192.344 22.2471 192.7 22.1689 193.179 22.0127C193.657 21.8467 193.989 21.7637 194.175 21.7637C194.37 21.7637 194.497 21.7734 194.556 21.793C194.683 21.8613 194.819 22.0127 194.966 22.2471C195.112 22.4717 195.186 22.6523 195.186 22.7891C195.186 22.916 195.059 23.0869 194.805 23.3018C194.551 23.5166 194.263 23.6826 193.94 23.7998C193.618 23.9072 193.403 23.9902 193.296 24.0488C191.235 25.2012 190.205 25.9922 190.205 26.4219C190.205 27.1836 190.854 27.5645 192.153 27.5645C192.983 27.5645 193.818 27.3008 194.658 26.7734C195.371 26.3242 196.011 25.8701 196.577 25.4111C197.153 24.9424 197.515 24.6543 197.661 24.5469C197.817 24.4395 197.935 24.3857 198.013 24.3857C198.267 24.3857 198.394 24.6689 198.394 25.2354C198.394 25.8018 198.359 26.1777 198.291 26.3633C198.223 26.5391 198.027 26.7588 197.705 27.0225C195.615 28.7217 193.638 29.5713 191.772 29.5713C190.776 29.5713 189.98 29.4346 189.385 29.1611C188.291 28.6631 187.744 27.9014 187.744 26.876C187.744 25.5283 188.677 24.5078 190.542 23.8145C190.171 23.6484 189.932 23.4385 189.824 23.1846C189.717 22.9209 189.663 22.5059 189.663 21.9395C189.663 21.3633 189.927 20.7578 190.454 20.123C190.991 19.4785 191.646 18.9512 192.417 18.541C194.136 17.6133 195.669 17.1494 197.017 17.1494C197.339 17.1494 197.666 17.2275 197.998 17.3838C198.33 17.54 198.496 17.7598 198.496 18.043Z" fill="#2892D7"/>
</g>
<defs>
<filter id="filter0_d" x="25.9688" y="6.83691" width="176.527" height="38.9814" filterUnits="userSpaceOnUse" color-interpolation-filters="sRGB">
<feFlood flood-opacity="0" result="BackgroundImageFix"/>
<feColorMatrix in="SourceAlpha" type="matrix" values="0 0 0 0 0 0 0 0 0 0 0 0 0 0 0 0 0 0 127 0"/>
<feOffset dy="4"/>
<feGaussianBlur stdDeviation="2"/>
<feColorMatrix type="matrix" values="0 0 0 0 0 0 0 0 0 0 0 0 0 0 0 0 0 0 0.25 0"/>
<feBlend mode="normal" in2="BackgroundImageFix" result="effect1_dropShadow"/>
<feBlend mode="normal" in="SourceGraphic" in2="effect1_dropShadow" result="shape"/>
</filter>
</defs>
</svg>
